<svg id="Layer_1" data-name="Layer 1" xmlns="http://www.w3.org/2000/svg" viewBox="0 0 732.03 455.22"><defs><style>.cls-1{fill:#fff;}</style></defs><title>ONE Championship</title><path class="cls-1" d="M384.17,72.39l62.19,190.45,43.06-125.09h48.79L446.1,408.53l-62-184.34L343.86,342.7H291.14ZM265.67,315A82.42,82.42,0,0,1,252,328.87a73.72,73.72,0,0,1-16.72,10A46.07,46.07,0,0,1,217,342.7H126.06a38.65,38.65,0,0,1-14.94-2.7,26.91,26.91,0,0,1-10.51-7.42,21,21,0,0,1-4.77-11.14Q95,315,98.25,307.26l47.84-135.78a42.31,42.31,0,0,1,10.59-15,78,78,0,0,1,15.75-11.31,80.67,80.67,0,0,1,18.07-7.26A67.66,67.66,0,0,1,208,135.36h85.09a37.22,37.22,0,0,1,15.25,2.87,24.3,24.3,0,0,1,10.11,7.93,23.69,23.69,0,0,1,4.3,11.81,30.32,30.32,0,0,1-2.54,14.52L275.06,299.16A68,68,0,0,1,265.67,315Zm-1.45-140.26H199.89L153.34,307.42h63.72Zm309.63-37H767l-14.1,41.43H615.57l-12.31,36.24,99.46-.06L687.1,260.65H587.65l-10,29.15,137.06-.08-18.12,52.64H503.85Z" transform="translate(-34.97 -72.39)"/><path class="cls-1" d="M60.91,506.71H49.55q-9.73,0-13-5.88t.55-16.44l10-27.46a39.89,39.89,0,0,1,5.16-10,29.56,29.56,0,0,1,6.26-6.53,24,24,0,0,1,7.77-3.69A46.47,46.47,0,0,1,74.9,435c2.73-.26,6-.39,9.88-.39H91.4c7.26,0,11.72,1.61,13.41,4.79s1.2,8.41-1.44,15.66l-.83,2.27H94.49l.73-2q2.82-7.75,1.43-10.69c-.93-2-3.91-2.94-9-2.94H83.15q-13.16,0-18.86,2.79t-9.11,12.17l-7.1,19.48c-1.14,3.16-2,5.64-2.6,7.42A55.35,55.35,0,0,0,44,489.35a12,12,0,0,0-.33,4.67,7.29,7.29,0,0,0,1.35,3,5.55,5.55,0,0,0,3.21,2,21.7,21.7,0,0,0,5.46.57H63.2q9.93,0,14.22-2.27c2.85-1.52,5.18-4.74,7-9.67L86.45,482h8l-2.41,6.63a31.09,31.09,0,0,1-4.22,8.09,24.27,24.27,0,0,1-5.19,5.3,20.19,20.19,0,0,1-6.43,3,39.46,39.46,0,0,1-7.13,1.37C66.87,506.6,64.12,506.71,60.91,506.71Z" transform="translate(-34.97 -72.39)"/><path class="cls-1" d="M127.63,435.17l-9.95,27.35h.18q5.06-6.61,17.74-6.62,10.13,0,13.15,3.63t-.69,13.58l-12,33h-7.47l12.22-33.58q2.38-6.54.51-8.57t-8.58-2c-6,0-10.35,1.06-13.09,3.22s-5.17,6.13-7.3,12l-10.55,29H94.32l25.82-71Z" transform="translate(-34.97 -72.39)"/><path class="cls-1" d="M190.27,506.14h-7.48l1.87-5.11-.14-.2a14.21,14.21,0,0,1-7.71,4.83,47.59,47.59,0,0,1-10.78,1c-6.31,0-10.68-1-13.1-3s-2.54-6-.36-12a32.18,32.18,0,0,1,4.22-8.19,15.77,15.77,0,0,1,5.66-4.77,22.63,22.63,0,0,1,6.7-2.13,60.52,60.52,0,0,1,8.51-.51q14.47,0,13.79,5h.48l3.33-9.17c1.53-4.23,1.52-6.93-.07-8.14s-4.78-1.79-9.57-1.79c-1.32,0-2.35,0-3.09,0s-1.72.09-2.95.18a11.19,11.19,0,0,0-3,.63c-.78.31-1.63.7-2.56,1.18a6.52,6.52,0,0,0-2.32,1.94,11.17,11.17,0,0,0-1.5,2.83l-.63,1.7h-7.75l.38-1a23.05,23.05,0,0,1,3.37-6.3,18.86,18.86,0,0,1,4.12-4,15.71,15.71,0,0,1,5.18-2.19,30.79,30.79,0,0,1,5.69-.88c1.69-.11,3.84-.15,6.43-.15,2.84,0,5.17.08,7,.23a22.83,22.83,0,0,1,5.46,1.15,6.68,6.68,0,0,1,3.77,2.63,9.11,9.11,0,0,1,1,4.83,23.18,23.18,0,0,1-1.65,7.53Zm-20.71-5.49c1.89,0,3.4,0,4.52-.08a34,34,0,0,0,4.19-.58,11.9,11.9,0,0,0,4.06-1.43,13.24,13.24,0,0,0,3.13-2.74,14.37,14.37,0,0,0,2.52-4.44,11.76,11.76,0,0,0,.89-4.54,5.67,5.67,0,0,0-.7-2.74,4.34,4.34,0,0,0-2.79-1.43,22.76,22.76,0,0,0-3.79-.51c-1.06,0-2.82-.05-5.28-.05-4.86,0-8.34.48-10.42,1.45s-3.83,3.37-5.2,7.16c-1.62,4.41-1.76,7.18-.41,8.28S164.7,500.65,169.56,500.65Z" transform="translate(-34.97 -72.39)"/><path class="cls-1" d="M228.41,456.46l-2.8,7.67h.2q6.39-8.24,19.54-8.23a19.65,19.65,0,0,1,9.11,1.9c2.48,1.25,3.55,3.37,3.23,6.33q7.17-8.24,20.69-8.23c6.31,0,10.27,1.35,11.85,4.06s1.27,7.2-1,13.44l-11.91,32.74h-7.49l11.65-32c1.66-4.54,2.12-7.72,1.42-9.52S279.58,462,275,462c-5.49,0-9.75,1-12.75,2.93s-5.47,5.55-7.38,10.78l-11.09,30.47h-7.48l12.12-33.31a39.8,39.8,0,0,0,1.34-4.58,8.55,8.55,0,0,0-.07-3.17,3.18,3.18,0,0,0-2.42-2.47,20.7,20.7,0,0,0-6-.65q-7.56,0-12.49,3.4t-7.66,10.88l-10.88,29.9h-7.47l18.08-49.68Z" transform="translate(-34.97 -72.39)"/><path class="cls-1" d="M315.36,456.46l-2.2,6.06.11.18q6.09-6.79,18.47-6.8a22.44,22.44,0,0,1,8.47,1.32,9.77,9.77,0,0,1,4.47,3.28,8.71,8.71,0,0,1,1.14,5.53,32.69,32.69,0,0,1-1.15,6.84c-.6,2.19-1.53,5-2.79,8.47q-5.34,14.67-11.44,20t-17.19,5.35q-12.88,0-13.64-6.45h-.2l-10,27.35H282l25.9-71.15Zm12.09,5.5a29.27,29.27,0,0,0-5.41.46,37.53,37.53,0,0,0-4.11,1,8.75,8.75,0,0,0-3.28,2.09c-1,1-1.84,1.88-2.46,2.6a17.37,17.37,0,0,0-2.1,3.68c-.79,1.74-1.4,3.17-1.83,4.26s-1.08,2.86-2,5.25c-1,2.79-1.75,5-2.22,6.63a27.63,27.63,0,0,0-.94,5.21,6.4,6.4,0,0,0,.71,4.16,7,7,0,0,0,3.29,2.36,16.82,16.82,0,0,0,6.23.95c5.73,0,9.91-1.19,12.47-3.6s5.34-7.63,8.28-15.71q2.28-6.24,3.09-9.39a12.92,12.92,0,0,0,.34-5.75,4.19,4.19,0,0,0-2.88-3.39A22.5,22.5,0,0,0,327.45,462Z" transform="translate(-34.97 -72.39)"/><path class="cls-1" d="M369.77,456.46l-18.09,49.68H344.2l18.1-49.68Zm7.75-21.29-3,8.23H367l3-8.23Z" transform="translate(-34.97 -72.39)"/><path class="cls-1" d="M368.18,494.22a91.37,91.37,0,0,1,3.89-12.88,102.2,102.2,0,0,1,5.48-12.86,25.46,25.46,0,0,1,6.15-7.67,18.77,18.77,0,0,1,8.07-4,59.78,59.78,0,0,1,11.6-.93,49.56,49.56,0,0,1,10.93.93,7.41,7.41,0,0,1,5.16,4,12.18,12.18,0,0,1,.58,7.67,90.65,90.65,0,0,1-3.87,12.86,108.83,108.83,0,0,1-5.49,12.88,25.21,25.21,0,0,1-6.14,7.62,19,19,0,0,1-8.05,3.92,56.74,56.74,0,0,1-11.61.95,46.68,46.68,0,0,1-10.91-.95,7.56,7.56,0,0,1-5.2-3.92A12.09,12.09,0,0,1,368.18,494.22Zm14.47-20.39c-.7,1.78-1.66,4.29-2.82,7.51s-2.06,5.71-2.63,7.49A29.18,29.18,0,0,0,376,494a7.62,7.62,0,0,0,.07,3.56,4.35,4.35,0,0,0,1.87,1.88,8.33,8.33,0,0,0,3.49,1.05c1.38.13,3.26.18,5.67.18s4.32,0,5.8-.18a14.4,14.4,0,0,0,4.25-1.05,12,12,0,0,0,3.25-1.88A15.19,15.19,0,0,0,403,494a35.71,35.71,0,0,0,2.55-5.15c.7-1.78,1.64-4.26,2.81-7.49s2.06-5.73,2.66-7.51a29.57,29.57,0,0,0,1.2-5.16,7.88,7.88,0,0,0-.08-3.55,4,4,0,0,0-1.85-1.93,8.1,8.1,0,0,0-3.5-1.05c-1.37-.12-3.25-.18-5.66-.18s-4.33.06-5.79.18a14,14,0,0,0-4.25,1.05,11.27,11.27,0,0,0-3.26,1.93,16.14,16.14,0,0,0-2.67,3.55A39.21,39.21,0,0,0,382.65,473.83Z" transform="translate(-34.97 -72.39)"/><path class="cls-1" d="M444.14,456.46l-2.21,6.06h.18q5.08-6.61,17.74-6.62,10.13,0,13.15,3.63t-.68,13.58l-12,33h-7.47l12.23-33.58q2.38-6.54.5-8.57T457,462c-6,0-10.35,1.06-13.09,3.22s-5.17,6.13-7.3,12l-10.54,29h-7.49l18.09-49.68Z" transform="translate(-34.97 -72.39)"/><path class="cls-1" d="M526.79,467.53l-.69,1.91h-7.77l.69-1.91a4.8,4.8,0,0,0,.37-2.45,2.84,2.84,0,0,0-.69-1.49,4.21,4.21,0,0,0-2.24-.74,26.68,26.68,0,0,0-3-.28c-.88,0-2.28-.05-4.24-.05h-4.35c-.81,0-1.94.06-3.37.18a12.11,12.11,0,0,0-3,.53,17.66,17.66,0,0,0-2.2,1,5.3,5.3,0,0,0-2,1.76,14.21,14.21,0,0,0-1.2,2.55c-1.4,3.84-1.73,6.19-1,7s2.88,1.35,6.43,1.48c.72.06,1.28.09,1.66.09,1,.08,2.57.14,4.57.19s3.5.13,4.52.2,2.3.2,3.86.42a11.15,11.15,0,0,1,3.46.91,13.44,13.44,0,0,1,2.39,1.6,4.16,4.16,0,0,1,1.55,2.55,13.77,13.77,0,0,1,0,3.83,22.83,22.83,0,0,1-1.33,5.25,25.08,25.08,0,0,1-3.7,6.91,19.44,19.44,0,0,1-4.4,4.31,17,17,0,0,1-5.56,2.27,35.22,35.22,0,0,1-5.84.95c-1.64.09-3.81.14-6.53.14s-4.81,0-6.48-.14a38,38,0,0,1-5.52-.81,11.09,11.09,0,0,1-4.49-1.84,6,6,0,0,1-2-3.41,9.9,9.9,0,0,1,.65-5.45l1.69-4.63h7.76l-1.41,3.87c-.84,2.34-.47,3.9,1.16,4.66s5.28,1.12,11,1.12l2,.05c1.08,0,1.82,0,2.3,0l2.14-.18a11.9,11.9,0,0,0,2.28-.43c.55-.2,1.22-.48,2-.85a7.41,7.41,0,0,0,2-1.38,13,13,0,0,0,1.63-2,13.87,13.87,0,0,0,1.43-2.83,15.16,15.16,0,0,0,.94-3.8,10.89,10.89,0,0,0,0-2.31c-.1-.54-.58-.95-1.46-1.23a9.92,9.92,0,0,0-2.13-.52c-.54-.05-1.65-.11-3.34-.15s-3-.08-4-.14c-.74,0-1.9-.12-3.49-.18s-2.77-.12-3.52-.2-1.8-.18-3.08-.38a14.49,14.49,0,0,1-2.88-.66c-.64-.25-1.39-.59-2.27-1a3.7,3.7,0,0,1-1.77-1.6,12.17,12.17,0,0,1-.82-2.32,7.39,7.39,0,0,1,0-3.22,24.15,24.15,0,0,1,1.16-4.11,40.28,40.28,0,0,1,2.06-4.74,17.09,17.09,0,0,1,2.49-3.6,29.22,29.22,0,0,1,2.7-2.6,10.16,10.16,0,0,1,3.25-1.78,33.66,33.66,0,0,1,3.43-1.1,24.2,24.2,0,0,1,4-.57c1.69-.12,3.11-.2,4.25-.24s2.77,0,4.84,0,4,0,5.42.09a24.92,24.92,0,0,1,4.78.76,9.54,9.54,0,0,1,4,1.8,5.78,5.78,0,0,1,1.72,3.45A10.73,10.73,0,0,1,526.79,467.53Z" transform="translate(-34.97 -72.39)"/><path class="cls-1" d="M557.58,435.17l-10,27.35h.19c3.36-4.41,9.29-6.62,17.74-6.62q10.13,0,13.14,3.63T578,473.11l-12,33h-7.47l12.22-33.58c1.59-4.36,1.75-7.22.51-8.57s-4.1-2-8.58-2c-6,0-10.36,1.06-13.09,3.22s-5.17,6.13-7.3,12l-10.55,29h-7.47l25.82-71Z" transform="translate(-34.97 -72.39)"/><path class="cls-1" d="M604.61,456.46l-18.08,49.68h-7.47l18.08-49.68Zm7.75-21.29-3,8.23h-7.47l3-8.23Z" transform="translate(-34.97 -72.39)"/><path class="cls-1" d="M624.77,456.46l-2.21,6.06.12.18q6.08-6.79,18.46-6.8a22.37,22.37,0,0,1,8.47,1.32,9.84,9.84,0,0,1,4.49,3.28,8.71,8.71,0,0,1,1.12,5.53,33.36,33.36,0,0,1-1.13,6.84c-.6,2.19-1.54,5-2.8,8.47q-5.34,14.67-11.44,20t-17.19,5.35q-12.85,0-13.66-6.45h-.18l-10,27.35H591.4l25.91-71.15Zm12.08,5.5a29.51,29.51,0,0,0-5.41.46,39.38,39.38,0,0,0-4.11,1,8.54,8.54,0,0,0-3.26,2.09c-1,1-1.86,1.88-2.47,2.6a17.31,17.31,0,0,0-2.11,3.68c-.77,1.74-1.38,3.17-1.82,4.26s-1.09,2.86-2,5.25c-1,2.79-1.74,5-2.23,6.63a28.45,28.45,0,0,0-.93,5.21,6.4,6.4,0,0,0,.7,4.16,7,7,0,0,0,3.29,2.36,16.92,16.92,0,0,0,6.24.95c5.74,0,9.92-1.19,12.47-3.6s5.34-7.63,8.28-15.71q2.26-6.24,3.1-9.39a13.2,13.2,0,0,0,.33-5.75,4.17,4.17,0,0,0-2.88-3.39A22.57,22.57,0,0,0,636.85,462Z" transform="translate(-34.97 -72.39)"/><path class="cls-1" d="M413,405.92H64.75L69.33,392H418.11ZM682,392H479.24l-5.73,13.95H677.17Z" transform="translate(-34.97 -72.39)"/><path class="cls-1" d="M658.63,448.85v-10.8h-3.37v-2h9.24v2h-3.39v10.8Z" transform="translate(-34.97 -72.39)"/><path class="cls-1" d="M677,448.85V437.67l-3.55,11.18h-1.21l-3.54-11.18v11.18h-1.88V436.08h3.6l2.67,8.23,2.64-8.23h3.62v12.77Z" transform="translate(-34.97 -72.39)"/></svg>
